<mxfile host="app.diagrams.net" agent="Mozilla/5.0 (Windows NT 10.0; Win64; x64) AppleWebKit/537.36 (KHTML, like Gecko) Chrome/134.0.0.0 Safari/537.36 Edg/134.0.0.0" version="26.1.0">
  <diagram name="第 1 页" id="rSO4j9llTemX6OElhtI6">
    <mxGraphModel dx="2040" dy="815" grid="1" gridSize="10" guides="1" tooltips="1" connect="1" arrows="1" fold="1" page="1" pageScale="1" pageWidth="827" pageHeight="1169" math="0" shadow="0">
      <root>
        <mxCell id="0" />
        <mxCell id="1" parent="0" />
        <mxCell id="Ajj9kqLxg7qa2MLV7y7c-1" value="" style="rounded=1;arcSize=5;whiteSpace=wrap;html=1;fillColor=#d5e8d4;strokeColor=light-dark(#517f31, #446e2c);" vertex="1" parent="1">
          <mxGeometry x="200" y="408" width="540" height="250" as="geometry" />
        </mxCell>
        <mxCell id="Ajj9kqLxg7qa2MLV7y7c-2" value="" style="rounded=1;arcSize=5;whiteSpace=wrap;html=1;fillColor=light-dark(#deebf7, #1d293b);strokeColor=light-dark(#2a77bc, #5c79a3);" vertex="1" parent="1">
          <mxGeometry x="200" y="90" width="540" height="250" as="geometry" />
        </mxCell>
        <mxCell id="Ajj9kqLxg7qa2MLV7y7c-3" value="" style="group" vertex="1" connectable="0" parent="1">
          <mxGeometry x="-10" y="320" width="140" height="100" as="geometry" />
        </mxCell>
        <mxCell id="Ajj9kqLxg7qa2MLV7y7c-4" value="" style="group" vertex="1" connectable="0" parent="Ajj9kqLxg7qa2MLV7y7c-3">
          <mxGeometry x="-50" width="190" height="88" as="geometry" />
        </mxCell>
        <mxCell id="Ajj9kqLxg7qa2MLV7y7c-5" value="" style="shape=actor;whiteSpace=wrap;html=1;" vertex="1" parent="Ajj9kqLxg7qa2MLV7y7c-4">
          <mxGeometry x="50" width="40" height="60" as="geometry" />
        </mxCell>
        <mxCell id="Ajj9kqLxg7qa2MLV7y7c-6" value="&lt;font face=&quot;Times New Roman&quot;&gt;&lt;span style=&quot;font-size: 14px;&quot;&gt;I&#39;m sleepy&lt;/span&gt;&lt;/font&gt;" style="whiteSpace=wrap;html=1;shape=mxgraph.basic.roundRectCallout;dx=30;dy=15;size=5;boundedLbl=1;" vertex="1" parent="Ajj9kqLxg7qa2MLV7y7c-4">
          <mxGeometry x="100" width="80" height="60" as="geometry" />
        </mxCell>
        <mxCell id="Ajj9kqLxg7qa2MLV7y7c-7" value="&lt;font face=&quot;Times New Roman&quot; style=&quot;font-size: 14px;&quot;&gt;用户对话&lt;/font&gt;" style="text;html=1;align=center;verticalAlign=middle;resizable=0;points=[];autosize=1;strokeColor=none;fillColor=none;" vertex="1" parent="Ajj9kqLxg7qa2MLV7y7c-3">
          <mxGeometry x="20" y="70" width="80" height="30" as="geometry" />
        </mxCell>
        <mxCell id="Ajj9kqLxg7qa2MLV7y7c-8" style="edgeStyle=orthogonalEdgeStyle;rounded=1;orthogonalLoop=1;jettySize=auto;html=1;fillColor=#1ba1e2;strokeColor=light-dark(#164673, #51afe7);curved=0;textShadow=1;" edge="1" parent="1">
          <mxGeometry relative="1" as="geometry">
            <mxPoint x="351" y="219.5" as="sourcePoint" />
            <mxPoint x="401" y="219.5" as="targetPoint" />
          </mxGeometry>
        </mxCell>
        <mxCell id="Ajj9kqLxg7qa2MLV7y7c-9" style="edgeStyle=orthogonalEdgeStyle;rounded=1;orthogonalLoop=1;jettySize=auto;html=1;fillColor=#1ba1e2;strokeColor=light-dark(#164673, #51afe7);curved=0;" edge="1" parent="1">
          <mxGeometry relative="1" as="geometry">
            <mxPoint x="510" y="220" as="sourcePoint" />
            <mxPoint x="570" y="160" as="targetPoint" />
            <Array as="points">
              <mxPoint x="510" y="221" />
              <mxPoint x="540" y="221" />
              <mxPoint x="540" y="160" />
              <mxPoint x="570" y="160" />
            </Array>
          </mxGeometry>
        </mxCell>
        <mxCell id="Ajj9kqLxg7qa2MLV7y7c-10" value="" style="group;strokeWidth=24;" vertex="1" connectable="0" parent="1">
          <mxGeometry x="239" y="520" width="115.27381738173817" height="108.2197809842824" as="geometry" />
        </mxCell>
        <mxCell id="Ajj9kqLxg7qa2MLV7y7c-11" value="&lt;span style=&quot;color: rgba(0, 0, 0, 0); font-family: monospace; font-size: 0px; text-align: start;&quot;&gt;%3CmxGraphModel%3E%3Croot%3E%3CmxCell%20id%3D%220%22%2F%3E%3CmxCell%20id%3D%221%22%20parent%3D%220%22%2F%3E%3CmxCell%20id%3D%222%22%20value%3D%22%26lt%3Bb%26gt%3BEnv.%20Prompt%26lt%3B%2Fb%26gt%3B%22%20style%3D%22text%3Bhtml%3D1%3Balign%3Dcenter%3BverticalAlign%3Dmiddle%3Bresizable%3D0%3Bpoints%3D%5B%5D%3Bautosize%3D1%3BstrokeColor%3Dnone%3BfillColor%3Dnone%3B%22%20vertex%3D%221%22%20parent%3D%221%22%3E%3CmxGeometry%20x%3D%22235%22%20y%3D%22265%22%20width%3D%2290%22%20height%3D%2230%22%20as%3D%22geometry%22%2F%3E%3C%2FmxCell%3E%3C%2Froot%3E%3C%2FmxGraphModel%3E&lt;/span&gt;" style="text;html=1;align=center;verticalAlign=middle;resizable=0;points=[];autosize=1;strokeColor=none;fillColor=none;fontStyle=4" vertex="1" parent="Ajj9kqLxg7qa2MLV7y7c-10">
          <mxGeometry x="32.43564356435644" y="78.21848811671026" width="20" height="30" as="geometry" />
        </mxCell>
        <mxCell id="Ajj9kqLxg7qa2MLV7y7c-12" value="&lt;b&gt;&lt;font face=&quot;Times New Roman&quot;&gt;行为目标提示（Prompt）&lt;/font&gt;&lt;/b&gt;" style="text;html=1;align=center;verticalAlign=middle;resizable=0;points=[];autosize=1;strokeColor=none;fillColor=none;" vertex="1" parent="Ajj9kqLxg7qa2MLV7y7c-10">
          <mxGeometry x="-28.99618261826183" y="78.2197809842824" width="160" height="30" as="geometry" />
        </mxCell>
        <mxCell id="Ajj9kqLxg7qa2MLV7y7c-13" value="&lt;div style=&quot;color: rgb(51, 51, 51);&quot;&gt;&lt;span style=&quot;background-color: transparent; color: light-dark(rgb(51, 51, 51), rgb(193, 193, 193));&quot;&gt;&lt;font face=&quot;Times New Roman&quot;&gt;&amp;nbsp; Object List:&lt;/font&gt;&lt;/span&gt;&lt;/div&gt;&lt;div style=&quot;color: rgb(51, 51, 51);&quot;&gt;&lt;font face=&quot;Times New Roman&quot;&gt;&amp;nbsp; Action history:&lt;/font&gt;&lt;/div&gt;&lt;div style=&quot;color: rgb(51, 51, 51);&quot;&gt;&lt;font face=&quot;Times New Roman&quot;&gt;&amp;nbsp;&amp;nbsp;&lt;/font&gt;&lt;/div&gt;" style="strokeWidth=1;html=1;shape=mxgraph.flowchart.multi-document;whiteSpace=wrap;align=left;fillColor=light-dark(#e7e6e6, #ededed);" vertex="1" parent="Ajj9kqLxg7qa2MLV7y7c-10">
          <mxGeometry x="-3.6039603960396045" y="5.819196942368815" width="90.09900990099013" height="72.40058404191363" as="geometry" />
        </mxCell>
        <mxCell id="Ajj9kqLxg7qa2MLV7y7c-14" value="" style="group;align=left;" vertex="1" connectable="0" parent="1">
          <mxGeometry x="239" y="142.5" width="115.5" height="145" as="geometry" />
        </mxCell>
        <mxCell id="Ajj9kqLxg7qa2MLV7y7c-15" value="&lt;b&gt;&lt;font face=&quot;Times New Roman&quot;&gt;环境提示（Prompt）&lt;/font&gt;&lt;/b&gt;" style="text;html=1;align=center;verticalAlign=middle;resizable=0;points=[];autosize=1;strokeColor=none;fillColor=none;" vertex="1" parent="Ajj9kqLxg7qa2MLV7y7c-14">
          <mxGeometry x="-15" y="110" width="130" height="30" as="geometry" />
        </mxCell>
        <mxCell id="Ajj9kqLxg7qa2MLV7y7c-16" value="&lt;div style=&quot;color: rgb(51, 51, 51);&quot;&gt;&lt;span style=&quot;background-color: transparent; color: light-dark(rgb(51, 51, 51), rgb(193, 193, 193));&quot;&gt;&lt;font face=&quot;Times New Roman&quot;&gt;&amp;nbsp; User states:&lt;/font&gt;&lt;/span&gt;&lt;/div&gt;&lt;div style=&quot;color: rgb(51, 51, 51);&quot;&gt;&lt;span style=&quot;background-color: transparent; color: light-dark(rgb(51, 51, 51), rgb(193, 193, 193));&quot;&gt;&lt;font face=&quot;Times New Roman&quot;&gt;&amp;nbsp; Env.info.:&lt;/font&gt;&lt;/span&gt;&lt;/div&gt;&lt;div style=&quot;color: rgb(51, 51, 51);&quot;&gt;&lt;font face=&quot;Times New Roman&quot;&gt;&amp;nbsp; Intention history:&lt;/font&gt;&lt;/div&gt;&lt;div style=&quot;color: rgb(51, 51, 51);&quot;&gt;&lt;font face=&quot;Times New Roman&quot;&gt;&amp;nbsp; ...&lt;/font&gt;&lt;/div&gt;" style="strokeWidth=1;html=1;shape=mxgraph.flowchart.multi-document;whiteSpace=wrap;align=left;fillColor=light-dark(#e7e6e6, #ededed);" vertex="1" parent="Ajj9kqLxg7qa2MLV7y7c-14">
          <mxGeometry x="-10" y="20" width="115.5" height="90" as="geometry" />
        </mxCell>
        <mxCell id="Ajj9kqLxg7qa2MLV7y7c-17" value="" style="group" vertex="1" connectable="0" parent="1">
          <mxGeometry x="406" y="152.5" width="149" height="165" as="geometry" />
        </mxCell>
        <mxCell id="Ajj9kqLxg7qa2MLV7y7c-18" value="" style="group;fontStyle=0;strokeWidth=1;" vertex="1" connectable="0" parent="Ajj9kqLxg7qa2MLV7y7c-17">
          <mxGeometry width="149" height="165" as="geometry" />
        </mxCell>
        <mxCell id="Ajj9kqLxg7qa2MLV7y7c-19" value="&lt;font face=&quot;Times New Roman&quot;&gt;&lt;b&gt;大语言模型&lt;/b&gt;&lt;/font&gt;&lt;br&gt;&lt;div&gt;&lt;b&gt;&lt;font face=&quot;Times New Roman&quot;&gt;GPT-4o&lt;/font&gt;&lt;/b&gt;&lt;/div&gt;" style="text;html=1;align=center;verticalAlign=middle;resizable=0;points=[];autosize=1;strokeColor=none;fillColor=none;" vertex="1" parent="Ajj9kqLxg7qa2MLV7y7c-18">
          <mxGeometry x="9" y="95" width="80" height="40" as="geometry" />
        </mxCell>
        <mxCell id="Ajj9kqLxg7qa2MLV7y7c-20" value="" style="curved=1;endArrow=classic;html=1;rounded=0;strokeWidth=2;strokeColor=light-dark(#164673, #ededed);" edge="1" parent="Ajj9kqLxg7qa2MLV7y7c-18">
          <mxGeometry width="50" height="50" relative="1" as="geometry">
            <mxPoint x="64.5" y="20" as="sourcePoint" />
            <mxPoint x="34.5" y="20" as="targetPoint" />
            <Array as="points">
              <mxPoint x="64.5" />
              <mxPoint x="34.5" />
            </Array>
          </mxGeometry>
        </mxCell>
        <mxCell id="Ajj9kqLxg7qa2MLV7y7c-21" value="&lt;font style=&quot;font-size: 15px;&quot; face=&quot;Times New Roman&quot;&gt;高级推理&lt;/font&gt;" style="text;html=1;align=center;verticalAlign=middle;resizable=0;points=[];autosize=1;strokeColor=none;fillColor=none;fontColor=light-dark(#1c4c77, #a1cdf9);fontStyle=1" vertex="1" parent="1">
          <mxGeometry x="240" y="105" width="80" height="30" as="geometry" />
        </mxCell>
        <mxCell id="Ajj9kqLxg7qa2MLV7y7c-22" value="&lt;font style=&quot;font-size: 15px;&quot; face=&quot;Times New Roman&quot;&gt;低级推理&lt;/font&gt;" style="text;html=1;align=center;verticalAlign=middle;resizable=0;points=[];autosize=1;strokeColor=none;fillColor=none;fontColor=light-dark(#548235, #69c195);fontStyle=1" vertex="1" parent="1">
          <mxGeometry x="240" y="420" width="80" height="30" as="geometry" />
        </mxCell>
        <mxCell id="Ajj9kqLxg7qa2MLV7y7c-23" value="" style="group" vertex="1" connectable="0" parent="1">
          <mxGeometry x="309" y="420" width="150" height="78" as="geometry" />
        </mxCell>
        <mxCell id="Ajj9kqLxg7qa2MLV7y7c-24" value="" style="sketch=0;outlineConnect=0;fontColor=#006633;gradientColor=none;fillColor=#006600;strokeColor=none;dashed=0;verticalLabelPosition=bottom;verticalAlign=top;align=center;html=1;fontSize=12;fontStyle=0;aspect=fixed;pointerEvents=1;shape=mxgraph.aws4.gear;" vertex="1" parent="Ajj9kqLxg7qa2MLV7y7c-23">
          <mxGeometry x="51" width="48" height="48" as="geometry" />
        </mxCell>
        <mxCell id="Ajj9kqLxg7qa2MLV7y7c-25" value="&lt;font face=&quot;Times New Roman&quot;&gt;&lt;b&gt;意图更正&lt;/b&gt;&lt;/font&gt;" style="text;html=1;align=center;verticalAlign=middle;resizable=0;points=[];autosize=1;strokeColor=none;fillColor=none;" vertex="1" parent="Ajj9kqLxg7qa2MLV7y7c-23">
          <mxGeometry x="40" y="48" width="70" height="30" as="geometry" />
        </mxCell>
        <mxCell id="Ajj9kqLxg7qa2MLV7y7c-26" value="" style="group" vertex="1" connectable="0" parent="Ajj9kqLxg7qa2MLV7y7c-23">
          <mxGeometry width="150" height="78" as="geometry" />
        </mxCell>
        <mxCell id="Ajj9kqLxg7qa2MLV7y7c-27" value="" style="sketch=0;outlineConnect=0;fontColor=light-dark(#548235, #69c195);gradientColor=none;fillColor=light-dark(#548235, #6fc76f);strokeColor=none;dashed=0;verticalLabelPosition=bottom;verticalAlign=top;align=center;html=1;fontSize=12;fontStyle=0;aspect=fixed;pointerEvents=1;shape=mxgraph.aws4.gear;" vertex="1" parent="Ajj9kqLxg7qa2MLV7y7c-26">
          <mxGeometry x="51" width="48" height="48" as="geometry" />
        </mxCell>
        <mxCell id="Ajj9kqLxg7qa2MLV7y7c-28" style="edgeStyle=orthogonalEdgeStyle;rounded=1;orthogonalLoop=1;jettySize=auto;html=1;fillColor=#1ba1e2;strokeColor=light-dark(#446230, #28ab6a);curved=0;" edge="1" parent="1">
          <mxGeometry relative="1" as="geometry">
            <mxPoint x="330" y="557.21" as="sourcePoint" />
            <mxPoint x="385" y="557.21" as="targetPoint" />
          </mxGeometry>
        </mxCell>
        <mxCell id="Ajj9kqLxg7qa2MLV7y7c-29" value="" style="group" vertex="1" connectable="0" parent="1">
          <mxGeometry x="389.62" y="515" width="99.90045897877224" height="110.37013422818792" as="geometry" />
        </mxCell>
        <mxCell id="Ajj9kqLxg7qa2MLV7y7c-30" value="" style="group;fontStyle=0;strokeWidth=2;" vertex="1" connectable="0" parent="Ajj9kqLxg7qa2MLV7y7c-29">
          <mxGeometry width="99.90045897877224" height="110.37013422818792" as="geometry" />
        </mxCell>
        <mxCell id="Ajj9kqLxg7qa2MLV7y7c-31" value="&lt;b&gt;&lt;font face=&quot;Times New Roman&quot;&gt;轻量大语言模型&lt;/font&gt;&lt;/b&gt;&lt;div&gt;&lt;b&gt;&lt;font face=&quot;Times New Roman&quot;&gt;GPT-4o-mini&lt;/font&gt;&lt;/b&gt;&lt;/div&gt;" style="text;html=1;align=center;verticalAlign=middle;resizable=0;points=[];autosize=1;strokeColor=none;fillColor=none;" vertex="1" parent="Ajj9kqLxg7qa2MLV7y7c-30">
          <mxGeometry x="-11.62954102122777" y="80.37013422818792" width="110" height="40" as="geometry" />
        </mxCell>
        <mxCell id="Ajj9kqLxg7qa2MLV7y7c-32" value="" style="shape=flexArrow;endArrow=classic;html=1;rounded=0;fillColor=#66B2FF;strokeColor=light-dark(#7193c2, #ededed);" edge="1" parent="1">
          <mxGeometry width="50" height="50" relative="1" as="geometry">
            <mxPoint x="383.66" y="340" as="sourcePoint" />
            <mxPoint x="383.6568807627246" y="417.00054530582565" as="targetPoint" />
          </mxGeometry>
        </mxCell>
        <mxCell id="Ajj9kqLxg7qa2MLV7y7c-33" style="edgeStyle=orthogonalEdgeStyle;rounded=1;orthogonalLoop=1;jettySize=auto;html=1;fillColor=#1ba1e2;strokeColor=light-dark(#33531e, #28ab6a);curved=0;horizontal=1;" edge="1" parent="1">
          <mxGeometry relative="1" as="geometry">
            <mxPoint x="360" y="498" as="sourcePoint" />
            <mxPoint x="360" y="536" as="targetPoint" />
            <Array as="points">
              <mxPoint x="360" y="526" />
              <mxPoint x="360" y="526" />
            </Array>
          </mxGeometry>
        </mxCell>
        <mxCell id="Ajj9kqLxg7qa2MLV7y7c-34" style="edgeStyle=orthogonalEdgeStyle;rounded=1;orthogonalLoop=1;jettySize=auto;html=1;fillColor=#1ba1e2;strokeColor=light-dark(#385723, #28ab6a);curved=0;" edge="1" parent="1">
          <mxGeometry relative="1" as="geometry">
            <mxPoint x="476.37" y="557" as="sourcePoint" />
            <mxPoint x="512.37" y="557" as="targetPoint" />
            <Array as="points">
              <mxPoint x="512.74" y="557.21" />
              <mxPoint x="512.74" y="557.21" />
            </Array>
          </mxGeometry>
        </mxCell>
        <mxCell id="Ajj9kqLxg7qa2MLV7y7c-35" value="" style="shape=flexArrow;endArrow=classic;startArrow=classic;html=1;rounded=0;fillColor=#eeeeee;strokeColor=#36393d;" edge="1" parent="1">
          <mxGeometry width="100" height="100" relative="1" as="geometry">
            <mxPoint x="230" y="560" as="sourcePoint" />
            <mxPoint x="230" y="210" as="targetPoint" />
            <Array as="points">
              <mxPoint x="140" y="560" />
              <mxPoint x="140" y="370" />
              <mxPoint x="140" y="210" />
            </Array>
          </mxGeometry>
        </mxCell>
        <mxCell id="Ajj9kqLxg7qa2MLV7y7c-36" value="&lt;span style=&quot;color: rgb(0, 0, 0); font-style: normal; font-variant-ligatures: normal; font-variant-caps: normal; font-weight: 400; letter-spacing: normal; orphans: 2; text-align: center; text-indent: 0px; text-transform: none; widows: 2; word-spacing: 0px; -webkit-text-stroke-width: 0px; white-space: nowrap; background-color: rgb(251, 251, 251); text-decoration-thickness: initial; text-decoration-style: initial; text-decoration-color: initial; float: none; display: inline !important;&quot;&gt;&lt;font face=&quot;Times New Roman&quot; style=&quot;font-size: 14px;&quot;&gt;并行推理&lt;/font&gt;&lt;/span&gt;" style="text;whiteSpace=wrap;html=1;" vertex="1" parent="1">
          <mxGeometry x="150" y="360" width="120" height="40" as="geometry" />
        </mxCell>
        <mxCell id="Ajj9kqLxg7qa2MLV7y7c-37" value="" style="group" vertex="1" connectable="0" parent="1">
          <mxGeometry x="570" y="190" width="135.76999999999998" height="130" as="geometry" />
        </mxCell>
        <mxCell id="Ajj9kqLxg7qa2MLV7y7c-38" value="&lt;b&gt;&lt;font face=&quot;Times New Roman&quot;&gt;意图完成评估&lt;/font&gt;&lt;/b&gt;" style="text;html=1;align=center;verticalAlign=middle;resizable=0;points=[];autosize=1;strokeColor=none;fillColor=none;" vertex="1" parent="Ajj9kqLxg7qa2MLV7y7c-37">
          <mxGeometry x="15" y="100" width="100" height="30" as="geometry" />
        </mxCell>
        <mxCell id="Ajj9kqLxg7qa2MLV7y7c-39" value="" style="group" vertex="1" connectable="0" parent="Ajj9kqLxg7qa2MLV7y7c-37">
          <mxGeometry x="0.7699999999999818" y="-120" width="135" height="130" as="geometry" />
        </mxCell>
        <mxCell id="Ajj9kqLxg7qa2MLV7y7c-40" value="" style="group" vertex="1" connectable="0" parent="Ajj9kqLxg7qa2MLV7y7c-39">
          <mxGeometry y="60" width="130" height="60" as="geometry" />
        </mxCell>
        <mxCell id="Ajj9kqLxg7qa2MLV7y7c-41" value="&lt;font style=&quot;font-size: 10px;&quot; face=&quot;Times New Roman&quot;&gt;Human wants to have a coffee&lt;/font&gt;" style="whiteSpace=wrap;html=1;shape=mxgraph.basic.cloud_callout;strokeColor=light-dark(#4468ab, #319eff);fillColor=light-dark(#bdd7ee, #1e4a76);" vertex="1" parent="Ajj9kqLxg7qa2MLV7y7c-40">
          <mxGeometry x="5" width="120" height="39.99999999999999" as="geometry" />
        </mxCell>
        <mxCell id="Ajj9kqLxg7qa2MLV7y7c-42" value="&lt;font face=&quot;Times New Roman&quot;&gt;&lt;b&gt;意图推理&lt;/b&gt;&lt;/font&gt;" style="text;html=1;align=center;verticalAlign=middle;resizable=0;points=[];autosize=1;strokeColor=none;fillColor=none;" vertex="1" parent="Ajj9kqLxg7qa2MLV7y7c-39">
          <mxGeometry x="30" y="100" width="70" height="30" as="geometry" />
        </mxCell>
        <mxCell id="Ajj9kqLxg7qa2MLV7y7c-43" value="" style="shape=image;html=1;verticalAlign=top;verticalLabelPosition=bottom;labelBackgroundColor=#ffffff;imageAspect=0;aspect=fixed;image=https://cdn0.iconfinder.com/data/icons/phosphor-light-vol-1/256/brain-light-128.png;imageBackground=none;imageBorder=none;" vertex="1" parent="1">
          <mxGeometry x="414" y="170" width="83" height="83" as="geometry" />
        </mxCell>
        <mxCell id="Ajj9kqLxg7qa2MLV7y7c-44" value="" style="shape=image;html=1;verticalAlign=top;verticalLabelPosition=bottom;labelBackgroundColor=#ffffff;imageAspect=0;aspect=fixed;image=https://cdn0.iconfinder.com/data/icons/phosphor-light-vol-1/256/brain-light-128.png;imageBackground=none;imageBorder=none;" vertex="1" parent="1">
          <mxGeometry x="400.31" y="530" width="65.37" height="65.37" as="geometry" />
        </mxCell>
        <mxCell id="Ajj9kqLxg7qa2MLV7y7c-45" value="&lt;div style=&quot;text-align: center; line-height: 100%;&quot;&gt;&lt;span style=&quot;background-color: transparent; color: light-dark(rgb(0, 0, 0), rgb(255, 255, 255)); font-family: &amp;quot;Times New Roman&amp;quot;;&quot;&gt;&amp;nbsp; &amp;nbsp; &amp;nbsp;&lt;/span&gt;&lt;/div&gt;&lt;div style=&quot;text-align: center; line-height: 100%;&quot;&gt;&lt;span style=&quot;background-color: transparent; color: light-dark(rgb(0, 0, 0), rgb(255, 255, 255)); font-family: &amp;quot;Times New Roman&amp;quot;;&quot;&gt;&amp;nbsp; &amp;nbsp;&lt;/span&gt;&lt;span style=&quot;font-family: &amp;quot;Times New Roman&amp;quot;; background-color: transparent; color: light-dark(rgb(0, 0, 0), rgb(255, 255, 255));&quot;&gt;Human wants to have coffee&lt;/span&gt;&lt;/div&gt;&lt;ul style=&quot;line-height: 100%;&quot;&gt;&lt;li&gt;&lt;font face=&quot;Times New Roman&quot;&gt;Yes&lt;/font&gt;&lt;/li&gt;&lt;li&gt;&lt;font face=&quot;Times New Roman&quot;&gt;No&lt;/font&gt;&lt;/li&gt;&lt;/ul&gt;" style="shape=note;whiteSpace=wrap;html=1;backgroundOutline=1;darkOpacity=0.05;align=left;size=9;fillColor=light-dark(#bdd7ee, #ededed);" vertex="1" parent="1">
          <mxGeometry x="570" y="220" width="155" height="70" as="geometry" />
        </mxCell>
        <mxCell id="Ajj9kqLxg7qa2MLV7y7c-46" style="edgeStyle=orthogonalEdgeStyle;rounded=1;orthogonalLoop=1;jettySize=auto;html=1;fillColor=#1ba1e2;strokeColor=light-dark(#164673, #51afe7);curved=0;entryX=0.001;entryY=0.716;entryDx=0;entryDy=0;entryPerimeter=0;" edge="1" parent="1" target="Ajj9kqLxg7qa2MLV7y7c-45">
          <mxGeometry relative="1" as="geometry">
            <mxPoint x="510" y="220" as="sourcePoint" />
            <mxPoint x="581" y="168" as="targetPoint" />
            <Array as="points" />
          </mxGeometry>
        </mxCell>
        <mxCell id="Ajj9kqLxg7qa2MLV7y7c-47" style="edgeStyle=orthogonalEdgeStyle;rounded=1;orthogonalLoop=1;jettySize=auto;html=1;fillColor=#1ba1e2;strokeColor=light-dark(#385723, #28ab6a);curved=0;" edge="1" parent="1">
          <mxGeometry relative="1" as="geometry">
            <mxPoint x="592.04" y="560" as="sourcePoint" />
            <mxPoint x="628.04" y="560" as="targetPoint" />
            <Array as="points">
              <mxPoint x="628.41" y="560.21" />
              <mxPoint x="628.41" y="560.21" />
            </Array>
          </mxGeometry>
        </mxCell>
        <mxCell id="Ajj9kqLxg7qa2MLV7y7c-48" value="" style="group" vertex="1" connectable="0" parent="1">
          <mxGeometry x="502.0371428571427" y="540" width="100" height="87.00037037037032" as="geometry" />
        </mxCell>
        <mxCell id="Ajj9kqLxg7qa2MLV7y7c-49" value="" style="html=1;verticalLabelPosition=bottom;align=center;labelBackgroundColor=#ffffff;verticalAlign=top;strokeWidth=4;strokeColor=light-dark(#548235, #32a0ff);shadow=0;dashed=0;shape=mxgraph.ios7.icons.pie_chart;aspect=fixed;fillColor=light-dark(#d5e8d4, #ededed);fontStyle=0" vertex="1" parent="Ajj9kqLxg7qa2MLV7y7c-48">
          <mxGeometry x="23.132857142857233" width="53.74" height="52" as="geometry" />
        </mxCell>
        <mxCell id="Ajj9kqLxg7qa2MLV7y7c-50" value="&lt;b&gt;&lt;font face=&quot;Times New Roman&quot;&gt;交互物体&lt;/font&gt;&lt;/b&gt;&lt;div&gt;&lt;b&gt;&lt;font face=&quot;Times New Roman&quot;&gt;概率列表&lt;/font&gt;&lt;/b&gt;&lt;/div&gt;" style="text;html=1;align=center;verticalAlign=middle;resizable=0;points=[];autosize=1;strokeColor=none;fillColor=none;fontStyle=0" vertex="1" parent="Ajj9kqLxg7qa2MLV7y7c-48">
          <mxGeometry x="15" y="52.00037037037032" width="70" height="40" as="geometry" />
        </mxCell>
        <mxCell id="Ajj9kqLxg7qa2MLV7y7c-51" value="" style="group" vertex="1" connectable="0" parent="1">
          <mxGeometry x="620" y="540" width="130" height="88.22009936721152" as="geometry" />
        </mxCell>
        <mxCell id="Ajj9kqLxg7qa2MLV7y7c-52" value="" style="shape=flexArrow;endArrow=classic;html=1;rounded=0;fillColor=light-dark(#517f31, #2566a8);strokeColor=light-dark(#517f31, #ededed);endWidth=8.045977011494253;endSize=4.83448275862069;" edge="1" parent="Ajj9kqLxg7qa2MLV7y7c-51">
          <mxGeometry width="50" height="50" relative="1" as="geometry">
            <mxPoint x="100" y="32.26999999999998" as="sourcePoint" />
            <mxPoint x="150" y="32.26999999999998" as="targetPoint" />
            <Array as="points">
              <mxPoint x="110" y="32.26999999999998" />
            </Array>
          </mxGeometry>
        </mxCell>
        <mxCell id="Ajj9kqLxg7qa2MLV7y7c-53" value="" style="html=1;verticalLabelPosition=bottom;align=center;labelBackgroundColor=#ffffff;verticalAlign=top;strokeWidth=3;strokeColor=light-dark(#548235, #32a0ff);shadow=0;dashed=0;shape=mxgraph.ios7.icons.keypad;aspect=fixed;fillColor=none;" vertex="1" parent="1">
          <mxGeometry x="650" y="540" width="51.53" height="51.53" as="geometry" />
        </mxCell>
        <mxCell id="Ajj9kqLxg7qa2MLV7y7c-54" value="&lt;b&gt;预测目标&lt;/b&gt;" style="rounded=1;arcSize=5;whiteSpace=wrap;html=1;fillColor=light-dark(#ffffff, #1f2f1e);strokeColor=light-dark(#517f31, #446e2c);" vertex="1" parent="1">
          <mxGeometry x="780" y="554.19" width="132" height="37" as="geometry" />
        </mxCell>
        <mxCell id="Ajj9kqLxg7qa2MLV7y7c-55" value="&lt;b&gt;转移方程&lt;/b&gt;" style="text;html=1;align=center;verticalAlign=middle;whiteSpace=wrap;rounded=0;" vertex="1" parent="1">
          <mxGeometry x="645.77" y="598.22" width="60" height="30" as="geometry" />
        </mxCell>
      </root>
    </mxGraphModel>
  </diagram>
</mxfile>
